<svg width="284" height="200" viewBox="0 0 284 200" fill="none" xmlns="http://www.w3.org/2000/svg">
<g clip-path="url(#clip0_113_2)">
<path d="M32 66C32 57.1634 24.8366 50 16 50C7.16344 50 0 57.1634 0 66V134C0 142.837 7.16344 150 16 150C24.8366 150 32 142.837 32 134V66Z" fill="#3BAEEF"/>
<path d="M158 66C158 57.1634 150.837 50 142 50C133.163 50 126 57.1634 126 66V134C126 142.837 133.163 150 142 150C150.837 150 158 142.837 158 134V66Z" fill="#3BAEEF"/>
<path d="M284 66C284 57.1634 276.837 50 268 50C259.163 50 252 57.1634 252 66V134C252 142.837 259.163 150 268 150C276.837 150 284 142.837 284 134V66Z" fill="#3BAEEF"/>
<path d="M95 16C95 7.16344 87.8366 0 79 0C70.1634 0 63 7.16344 63 16V184C63 192.837 70.1634 200 79 200C87.8366 200 95 192.837 95 184V16Z" fill="#3BAEEF"/>
<path d="M221 16C221 7.16344 213.837 0 205 0C196.163 0 189 7.16344 189 16V184C189 192.837 196.163 200 205 200C213.837 200 221 192.837 221 184V16Z" fill="#3BAEEF"/>
</g>
<defs>
<clipPath id="clip0_113_2">
<rect width="284" height="200" fill="white"/>
</clipPath>
</defs>
</svg>
